<?xml version="1.0" encoding="UTF-8"?>
<svg xmlns="http://www.w3.org/2000/svg" width="460" height="460" viewBox="0 0 460 460">
  <rect width="460" height="460" fill="white"/>
  
  <defs>
    <marker id="arrowhead" markerWidth="10" markerHeight="7" refX="9" refY="3.5" orient="auto">
      <polygon points="0 0, 10 3.5, 0 7" fill="#000000" />
    </marker>
  </defs>
  
  <!-- Заголовок -->
  <text x="230" y="20" font-family="Arial" font-size="14" font-weight="bold" text-anchor="middle">Smart Contracts Async Flow</text>
  
  <!-- Блоки акторов -->
  <rect x="20" y="40" width="60" height="30" fill="white" stroke="#0000CC" stroke-width="1.5"/>
  <text x="50" y="60" font-family="Arial" font-size="12" font-weight="bold" text-anchor="middle">App</text>
  
  <rect x="140" y="40" width="60" height="30" fill="white" stroke="#00CC00" stroke-width="1.5"/>
  <text x="170" y="60" font-family="Arial" font-size="12" font-weight="bold" text-anchor="middle">FireFly</text>
  
  <rect x="260" y="40" width="120" height="30" fill="white" stroke="#CC6600" stroke-width="1.5"/>
  <text x="320" y="60" font-family="Arial" font-size="12" font-weight="bold" text-anchor="middle">Blockchain Connector</text>
  
  <rect x="400" y="40" width="40" height="30" fill="white" stroke="#6600CC" stroke-width="1.5"/>
  <text x="420" y="60" font-family="Arial" font-size="12" font-weight="bold" text-anchor="middle">Blockchain</text>
  
  <!-- Линии жизни -->
  <line x1="50" y1="70" x2="50" y2="440" stroke="#000000" stroke-dasharray="5,5" stroke-width="1"/>
  <line x1="170" y1="70" x2="170" y2="440" stroke="#000000" stroke-dasharray="5,5" stroke-width="1"/>
  <line x1="320" y1="70" x2="320" y2="440" stroke="#000000" stroke-dasharray="5,5" stroke-width="1"/>
  <line x1="420" y1="70" x2="420" y2="440" stroke="#000000" stroke-dasharray="5,5" stroke-width="1"/>
  
  <!-- Сообщения -->
  <!-- 1. Invoke custom contract -->
  <line x1="50" y1="100" x2="170" y2="100" stroke="#000000" stroke-width="1" marker-end="url(#arrowhead)"/>
  <text x="110" y="95" font-family="Arial" font-size="10" text-anchor="middle">Invoke custom contract</text>
  
  <!-- 2. Submit transaction -->
  <line x1="170" y1="130" x2="320" y2="130" stroke="#000000" stroke-width="1" marker-end="url(#arrowhead)"/>
  <text x="245" y="125" font-family="Arial" font-size="10" text-anchor="middle">Submit transaction</text>
  
  <!-- 3. Forward transaction -->
  <line x1="320" y1="160" x2="420" y2="160" stroke="#000000" stroke-width="1" marker-end="url(#arrowhead)"/>
  <text x="370" y="155" font-family="Arial" font-size="10" text-anchor="middle">Forward transaction</text>
  
  <!-- 4. Transaction accepted -->
  <line x1="420" y1="190" x2="320" y2="190" stroke="#000000" stroke-width="1" marker-end="url(#arrowhead)"/>
  <text x="370" y="185" font-family="Arial" font-size="10" text-anchor="middle">Transaction accepted</text>
  
  <!-- 5. Transaction accepted -->
  <line x1="320" y1="220" x2="170" y2="220" stroke="#000000" stroke-width="1" marker-end="url(#arrowhead)"/>
  <text x="245" y="215" font-family="Arial" font-size="10" text-anchor="middle">Transaction accepted</text>
  
  <!-- 6. Accepted (Operation ID) -->
  <line x1="170" y1="250" x2="50" y2="250" stroke="#000000" stroke-width="1" marker-end="url(#arrowhead)"/>
  <text x="110" y="235" font-family="Arial" font-size="10" text-anchor="middle">Accepted</text>
  <text x="110" y="245" font-family="Arial" font-size="10" text-anchor="middle">(Operation ID)</text>
  
  <!-- 7. Process transaction -->
  <path d="M 420,280 L 440,280 L 440,300 L 420,300" stroke="#000000" stroke-width="1" marker-end="url(#arrowhead)" fill="none"/>
  <text x="445" y="290" font-family="Arial" font-size="10" text-anchor="start">Process</text>
  
  <!-- 8. Emit blockchain events -->
  <line x1="420" y1="330" x2="320" y2="330" stroke="#000000" stroke-width="1" marker-end="url(#arrowhead)"/>
  <text x="370" y="325" font-family="Arial" font-size="10" text-anchor="middle">Emit blockchain events</text>
  
  <!-- 9. Forward events -->
  <line x1="320" y1="360" x2="170" y2="360" stroke="#000000" stroke-width="1" marker-end="url(#arrowhead)"/>
  <text x="245" y="355" font-family="Arial" font-size="10" text-anchor="middle">Forward events</text>
  
  <!-- 10. Store events in database -->
  <path d="M 170,380 L 190,380 L 190,400 L 170,400" stroke="#000000" stroke-width="1" marker-end="url(#arrowhead)" fill="none"/>
  <text x="170" y="375" font-family="Arial" font-size="10" text-anchor="start">Store events in database</text>
  
  <!-- 11. Emit blockchain_event_received -->
  <line x1="170" y1="420" x2="50" y2="420" stroke="#000000" stroke-width="1" marker-end="url(#arrowhead)"/>
  <text x="110" y="415" font-family="Arial" font-size="10" text-anchor="middle">Emit blockchain_event_received</text>
  
  <!-- Note -->
  <rect x="20" y="430" width="230" height="20" fill="white" stroke="#CC0000" stroke-width="1" rx="5" ry="5"/>
  <text x="135" y="443" font-family="Arial" font-size="10" text-anchor="middle" fill="#CC0000">App can subscribe to events via WebSockets or Webhooks</text>
</svg>
