<?xml version="1.0" encoding="UTF-8"?>
<svg xmlns="http://www.w3.org/2000/svg" width="570" height="560" viewBox="0 0 570 560">
  <rect width="570" height="560" fill="white"/>
  
  <defs>
    <marker id="arrowhead" markerWidth="10" markerHeight="7" refX="9" refY="3.5" orient="auto">
      <polygon points="0 0, 10 3.5, 0 7" fill="#000000" />
    </marker>
  </defs>
  
  <!-- Заголовок -->
  <text x="285" y="30" font-family="Arial" font-size="16" font-weight="bold" text-anchor="middle">Smart Contracts Async Flow</text>
  
  <!-- Блоки акторов -->
  <rect x="70" y="60" width="60" height="40" fill="white" stroke="#0000CC" stroke-width="1.5"/>
  <text x="100" y="85" font-family="Arial" font-size="12" font-weight="bold" text-anchor="middle">App</text>
  
  <rect x="230" y="60" width="60" height="40" fill="white" stroke="#00CC00" stroke-width="1.5"/>
  <text x="260" y="85" font-family="Arial" font-size="12" font-weight="bold" text-anchor="middle">FireFly</text>
  
  <rect x="390" y="60" width="60" height="40" fill="white" stroke="#CC6600" stroke-width="1.5"/>
  <text x="420" y="85" font-family="Arial" font-size="12" font-weight="bold" text-anchor="middle">Blockchain</text>
  
  <!-- Линии жизни -->
  <line x1="100" y1="100" x2="100" y2="520" stroke="#000000" stroke-dasharray="5,5" stroke-width="1"/>
  <line x1="260" y1="100" x2="260" y2="520" stroke="#000000" stroke-dasharray="5,5" stroke-width="1"/>
  <line x1="420" y1="100" x2="420" y2="520" stroke="#000000" stroke-dasharray="5,5" stroke-width="1"/>
  
  <!-- Сообщения -->
  <!-- 1. Invoke custom contract -->
  <line x1="100" y1="140" x2="260" y2="140" stroke="#000000" stroke-width="1" marker-end="url(#arrowhead)"/>
  <text x="180" y="135" font-family="Arial" font-size="11" text-anchor="middle">Invoke custom contract</text>
  
  <!-- 2. Submit transaction -->
  <line x1="260" y1="180" x2="420" y2="180" stroke="#000000" stroke-width="1" marker-end="url(#arrowhead)"/>
  <text x="340" y="175" font-family="Arial" font-size="11" text-anchor="middle">Submit transaction</text>
  
  <!-- 3. Accepted -->
  <line x1="420" y1="220" x2="260" y2="220" stroke="#000000" stroke-width="1" marker-end="url(#arrowhead)"/>
  <text x="340" y="215" font-family="Arial" font-size="11" text-anchor="middle">Accepted</text>
  
  <!-- 4. Accepted (Operation ID) -->
  <line x1="260" y1="260" x2="100" y2="260" stroke="#000000" stroke-width="1" marker-end="url(#arrowhead)"/>
  <text x="180" y="245" font-family="Arial" font-size="11" text-anchor="middle">Accepted</text>
  <text x="180" y="260" font-family="Arial" font-size="11" text-anchor="middle">(Operation ID)</text>
  
  <!-- 5. Perform transaction -->
  <path d="M 420,300 L 470,300 L 470,330 L 420,330" stroke="#000000" stroke-width="1" marker-end="url(#arrowhead)" fill="none"/>
  <text x="490" y="315" font-family="Arial" font-size="11" text-anchor="start">Perform transaction</text>
  
  <!-- 6. Emit events -->
  <line x1="420" y1="370" x2="260" y2="370" stroke="#000000" stroke-width="1" marker-end="url(#arrowhead)"/>
  <text x="340" y="365" font-family="Arial" font-size="11" text-anchor="middle">Emit events</text>
  
  <!-- 7. Emit events -->
  <line x1="260" y1="410" x2="100" y2="410" stroke="#000000" stroke-width="1" marker-end="url(#arrowhead)"/>
  <text x="180" y="405" font-family="Arial" font-size="11" text-anchor="middle">Emit events</text>
  
  <!-- Note -->
  <rect x="50" y="450" width="350" height="30" fill="white" stroke="#000000" stroke-width="1" rx="0" ry="0"/>
  <text x="225" y="470" font-family="Arial" font-size="11" text-anchor="middle">App can subscribe to events via WebSockets or Webhooks</text>
</svg>
