<?xml version="1.0" encoding="UTF-8"?><svg id="a" xmlns="http://www.w3.org/2000/svg" viewBox="0 0 288 67.81"><defs><style>.b{fill:#fff;}</style></defs><path class="b" d="M110.27,15.62h-38.23v-1.69c0-1.66-.88-3.19-2.32-4.02l-3.06-1.77V3.34c-.04-1.25-1.06-2.25-2.32-2.25s-2.32,1.04-2.32,2.32v2.05l-3.55-2.05c-1.44-.83-3.2-.83-4.64,0l-3.09,1.79v-1.86c-.04-1.25-1.06-2.25-2.32-2.25s-2.32,1.04-2.32,2.32V7.88l-3.52,2.03-.15,.09c-1.35,.85-2.17,2.33-2.17,3.94v1.69H2.32c-2.23,0-3.18,2.84-1.39,4.18l26.02,19.51c.68,.51,1.58,.61,2.35,.25l10.95-5v22.09c0,1.66,.88,3.19,2.32,4.02l11.25,6.5c1.44,.83,3.2,.83,4.64,0l11.25-6.5,.15-.09c1.35-.85,2.17-2.33,2.17-3.94v-22.23l11.25,5.14c.77,.35,1.67,.26,2.35-.25l26.02-19.51c1.79-1.34,.84-4.18-1.39-4.18Zm-65.37-1.69l11.25-6.5,11.25,6.5v1.69h-10.95c-.05,0-.1,.01-.15,.02-.05,0-.1-.02-.15-.02h-11.25v-1.69Zm22.5,28.88l-11.22,6.49-11.28-6.52v-6.56l10.12,5.85,.08,.04c.7,.37,1.55,.36,2.24-.04l10.06-5.82v6.56Zm-11.22-5.44l-9.74-5.63,9.86-4.5,9.73,4.44-9.85,5.69Zm-27.54-2.61L9.29,20.27H53.83v3l-25.19,11.51Zm27.51,28.39l-11.25-6.5v-8.52l10.12,5.85,.08,.04c.7,.37,1.55,.36,2.24-.04l10.06-5.82v8.48l-11.25,6.5Zm27.81-28.39l-25.19-11.51v-3h44.53l-19.34,14.5Z"/><path class="b" d="M122.85,9.69l6.97-.03,.03,7.01,3.55-.03-.07-16.23h-3.59l.03,6.07-6.94,.03-.03-6.07-3.59,.03,.07,16.27,3.59-.03-.03-7.01Z"/><path class="b" d="M142.11,16.71h3.59l-.07-6.95L151.68,.41l-4.23,.03-3.62,6.1-3.49-6.07h-4.43l6.16,9.32,.03,6.91Z"/><path class="b" d="M157.88,16.67l-.03-6.34h2.61c.85,0,1.66-.1,2.4-.27,.74-.17,1.35-.44,1.9-.81,.54-.37,.95-.91,1.25-1.56,.3-.64,.44-1.46,.44-2.41s-.17-1.76-.51-2.41c-.34-.64-.78-1.12-1.35-1.52-.58-.37-1.22-.64-1.96-.78-.74-.14-1.56-.24-2.4-.2l-6.02,.03,.1,16.27h3.59Zm1.76-13.22c.34,0,.68,0,1.05,.03s.71,.14,1.02,.27c.3,.14,.54,.34,.74,.58,.2,.24,.3,.58,.3,.98,0,.37-.07,.71-.2,.95s-.34,.44-.58,.61c-.24,.14-.51,.24-.81,.3-.3,.07-.61,.1-.91,.1h-2.4l-.03-3.86,1.83,.03Z"/><path class="b" d="M180.45,16.67v-3.32l-7.89,.03v-3.29l7.04-.03-.03-3.32-7.04,.03V3.76l7.45-.07V.41l-11.07,.07,.1,16.23,11.44-.03Z"/><path class="b" d="M191.75,16.67l4.3-.03-4.16-6.85c1.15-.24,2.03-.75,2.61-1.52,.61-.81,.88-1.8,.88-2.95,0-.95-.17-1.73-.51-2.37-.34-.64-.78-1.15-1.35-1.52-.58-.37-1.22-.64-1.96-.78-.74-.17-1.52-.24-2.34-.24l-6.29,.03,.07,16.27,3.59-.03-.03-6.51h1.76l3.45,6.51Zm-5.21-9.52l-.03-3.69h2.34c.34,0,.64,.03,.98,.07,.34,.03,.64,.14,.91,.27s.47,.3,.64,.58c.17,.24,.27,.58,.27,.98,0,.44-.1,.78-.27,1.05-.2,.24-.44,.44-.71,.54-.3,.1-.61,.17-.98,.2-.37,.03-.71,.03-1.02,.03l-2.13-.03Z"/><path class="b" d="M208.74,16.64v-3.32l-6.63,.03-.07-12.95-3.59,.03,.1,16.23,10.19-.03Z"/><path class="b" d="M222.79,16.64l-.03-3.29-7.85,.03-.03-3.32,7.04-.03v-3.29l-7.04,.03-.03-3.05,7.44-.03V.41l-11.03,.03,.07,16.27,11.47-.07Z"/><path class="b" d="M237.58,14.57c.85-.68,1.49-1.52,2-2.54,.51-1.02,.74-2.17,.71-3.49,0-1.49-.27-2.74-.78-3.8-.51-1.05-1.22-1.86-2.1-2.54-.88-.64-1.89-1.12-3.08-1.39-1.19-.27-2.4-.41-3.72-.41l-5.38,.03,.1,16.27,5.85-.03c1.22,0,2.37-.2,3.45-.54,1.12-.37,2.1-.88,2.94-1.56Zm-6.8-1.22h-1.86l-.07-9.66h2.1c.75,0,1.46,.1,2.13,.27,.68,.17,1.29,.47,1.79,.85,.51,.37,.91,.85,1.22,1.46,.3,.58,.44,1.29,.47,2.07,0,.91-.14,1.69-.44,2.34-.3,.64-.71,1.15-1.22,1.56-.51,.41-1.12,.68-1.83,.85-.71,.2-1.49,.27-2.3,.27Z"/><path class="b" d="M251.99,7.05v3.32h2.91v2.64c-.34,.17-.78,.37-1.35,.54-.58,.17-1.25,.27-2.03,.27s-1.46-.14-2.06-.37c-.61-.27-1.15-.61-1.59-1.08-.44-.47-.78-1.02-1.02-1.66-.24-.64-.37-1.32-.37-2.1s.1-1.46,.34-2.1c.24-.64,.57-1.19,1.02-1.66,.44-.47,.98-.85,1.59-1.08,.61-.27,1.32-.41,2.06-.41,.91,0,1.69,.14,2.3,.37,.61,.27,1.15,.64,1.66,1.15l2.5-2.78c-.85-.75-1.79-1.29-2.88-1.59-1.08-.3-2.3-.47-3.59-.44-1.29,0-2.44,.2-3.52,.61-1.08,.41-2,.98-2.78,1.73-.78,.75-1.39,1.66-1.83,2.71-.44,1.05-.64,2.24-.64,3.52s.24,2.47,.68,3.52c.44,1.05,1.05,1.97,1.83,2.68,.78,.75,1.73,1.29,2.78,1.69,1.08,.41,2.23,.58,3.52,.58,1.18,0,2.37-.14,3.52-.37,1.15-.24,2.23-.64,3.28-1.22l.03-8.51-6.36,.03Z"/><path class="b" d="M272.4,16.27v-3.29l-7.89,.03v-3.32l7.04-.03-.03-3.29-7.04,.03V3.35l7.45-.03V0l-11.07,.07,.1,16.27,11.44-.07Z"/><path class="b" d="M278.56,16.3l-.03-6.51h1.76l3.42,6.47,4.3-.03-4.16-6.85c1.15-.24,2.03-.75,2.61-1.52,.57-.81,.88-1.8,.88-2.95,0-.95-.17-1.73-.51-2.37-.34-.64-.78-1.15-1.35-1.52-.58-.37-1.22-.64-1.96-.78-.74-.17-1.52-.24-2.37-.24l-6.29,.03,.07,16.27h3.66Zm2.27-13.25c.34,0,.64,.03,.98,.07,.34,.03,.64,.14,.88,.27,.27,.14,.47,.3,.64,.58,.17,.24,.27,.58,.27,.98,0,.44-.1,.78-.27,1.05-.2,.24-.44,.44-.71,.54-.3,.14-.61,.2-.98,.2-.37,.03-.71,.03-1.02,.03h-2.1l-.03-3.69,2.34-.03Z"/><path class="b" d="M123.88,61.73v-14.18h15.04v-4.17h-15.04v-10.29h16.15v-4.17h-20.59V61.73h4.44Zm26.9,0V28.93h-4.44V61.73h4.44Zm13.2,0v-14.46h4.95l8.33,14.46h5.55l-9.3-14.97c1.23-.12,2.35-.46,3.35-1,1-.54,1.85-1.2,2.54-1.99,.69-.79,1.23-1.67,1.6-2.64s.56-1.98,.56-3.03-.15-2.08-.46-3.17c-.31-1.1-.86-2.08-1.64-2.97-.79-.88-1.86-1.61-3.22-2.18-1.36-.57-3.08-.86-5.18-.86h-11.52V61.73h4.44Zm5.83-18.35h-5.83v-10.56h5.83c.86,0,1.72,.07,2.57,.21,.85,.14,1.6,.39,2.27,.76,.66,.37,1.2,.9,1.6,1.6,.4,.69,.6,1.6,.6,2.71s-.2,2.02-.6,2.71c-.4,.69-.93,1.23-1.6,1.6s-1.42,.63-2.27,.76c-.85,.14-1.7,.21-2.57,.21Zm40.31,18.35v-4.17h-17.54v-10.52h15.55v-4.17h-15.55v-9.78h16.7v-4.17h-21.14V61.73h21.98Zm11.07,0v-14.18h15.04v-4.17h-15.04v-10.29h16.15v-4.17h-20.59V61.73h4.44Zm41.93,0v-4.17h-15.04V28.93h-4.44V61.73h19.48Zm11.91,0v-13.99l12.4-18.81h-5.41l-9.21,14.41-8.93-14.41h-5.69l12.4,18.81v13.99h4.44Z"/></svg>