<?xml version="1.0" encoding="utf-8"?>
<!-- Generator: Adobe Illustrator 25.4.1, SVG Export Plug-In . SVG Version: 6.00 Build 0)  -->
<svg version="1.1" id="Layer_1" xmlns="http://www.w3.org/2000/svg" xmlns:xlink="http://www.w3.org/1999/xlink" x="0px" y="0px"
	 viewBox="0 0 336.9295654 93.0705872" style="enable-background:new 0 0 336.9295654 93.0705872;" xml:space="preserve">
<style type="text/css">
	.st0{fill:#24272A;}
	.st1{fill:#472EE0;}
	.st2{fill-rule:evenodd;clip-rule:evenodd;fill:#FFEA00;}
	.st3{fill:#462DE0;}
	.st4{fill:#231F20;}
	.st5{fill:#FFFFFF;}
</style>
<polygon class="st0" points="124.3871384,9.0240507 128.8513947,9.0000505 128.8925018,16.5495548 137.5666504,16.5053902 
	137.5255432,8.953517 141.9913483,8.9309845 142.0968475,29.1815472 137.6333466,29.203228 137.5868225,20.4515285 
	128.912674,20.4980621 128.959198,29.2497616 124.4933853,29.2738094 "/>
<polygon class="st0" points="152.8694916,20.6214256 145.1919556,9.0489502 150.7451477,9.0194588 155.0791321,16.5767746 
	159.58992,8.9729261 164.8856201,8.9473639 157.3337402,20.5989399 157.3779602,29.2358913 152.9144592,29.2598915 "/>
<path class="st0" d="M168.0104675,8.9965096l7.5293884-0.0387697c1.0485687-0.0062017,2.0428925,0.082983,2.9774628,0.2706785
	c0.9353638,0.1853275,1.7536011,0.5095453,2.4547272,0.9718008c0.6972656,0.4661369,1.2541199,1.0912342,1.6682892,1.8792219
	c0.4157104,0.7887926,0.6251221,1.7853985,0.6328735,2.9860315c0.0054321,1.1835432-0.1807098,2.1747065-0.5568848,2.9797831
	c-0.3784637,0.8011932-0.8996735,1.4418182-1.5643463,1.9242401c-0.6677704,0.4800549-1.4557648,0.8213139-2.3709412,1.0252934
	c-0.916748,0.2062988-1.9071808,0.3118153-2.9759369,0.3180161l-3.2636566,0.016283l0.0411072,7.8946934l-4.4642792,0.0224857
	L168.0104675,8.9965096z M172.5228424,17.5535088l2.9758911-0.01548c0.4025421-0.0008049,0.7864532-0.0418949,1.1602783-0.1202393
	c0.3707275-0.0759773,0.7026825-0.2093754,0.9997253-0.391674c0.2947388-0.1838131,0.5305176-0.4320049,0.7104492-0.7476559
	c0.1799316-0.3148918,0.2667999-0.7104473,0.2652435-1.1874247c-0.0038605-0.5134277-0.1240997-0.9291496-0.3629608-1.2424793
	c-0.2420044-0.3140879-0.5475616-0.5553217-0.9213867-0.7259274c-0.3699799-0.1667719-0.7880249-0.276123-1.2463989-0.3210936
	c-0.4583588-0.0442142-0.8981171-0.066699-1.317688-0.0628176l-2.2895508,0.0108404L172.5228424,17.5535088z"/>
<polygon class="st0" points="186.3684387,9.0147963 200.1358337,8.9427004 200.1575623,13.0618134 190.8544312,13.1114702 
	190.875351,16.8854427 199.6627502,16.8389091 199.6844482,20.9580688 190.8955231,21.0046024 190.9172516,25.1237144 
	200.7361603,25.0741043 200.7570801,29.190897 186.4739075,29.264555 "/>
<path class="st0" d="M203.8521881,8.9984102l7.8427277-0.0426512c1.0291901-0.0054445,2.0095367,0.0891838,2.9332733,0.2854004
	c0.9268036,0.1947012,1.7380829,0.5250721,2.4399872,0.9873276c0.6972351,0.4638176,1.2541199,1.0912342,1.6674957,1.8792696
	c0.4157257,0.790307,0.6259003,1.7760725,0.6328888,2.9557352c0.0069885,1.4309311-0.3598938,2.6478481-1.0990295,3.6553421
	c-0.7360077,1.0059319-1.8210602,1.6434326-3.2535553,1.9179916l5.1987457,8.526041l-5.3530884,0.0278816l-4.2765808-8.0730629
	l-2.206543,0.0116444l0.0426483,8.0947914l-4.4658203,0.0240479L203.8521881,8.9984102z M208.3606873,17.3529911
	l2.6338806-0.0131588c0.3994141-0.0015621,0.826004-0.0186043,1.2735138-0.0496578
	c0.448288-0.0317631,0.8531189-0.117115,1.2145538-0.2636719c0.3621979-0.1442871,0.6608124-0.3707523,0.8988953-0.6770763
	c0.2350159-0.3063698,0.3521271-0.7344952,0.3505859-1.2874966c-0.003891-0.5157471-0.1116943-0.9260254-0.3226624-1.2285156
	c-0.2101746-0.3040514-0.4785309-0.5359125-0.8035126-0.6972399c-0.3249512-0.1621332-0.7003326-0.267602-1.1191559-0.3234138
	c-0.4195862-0.0551014-0.8291016-0.0814686-1.2300873-0.0775862l-2.9200592,0.0147219L208.3606873,17.3529911z"/>
<polygon class="st0" points="223.2018585,8.9766178 227.665329,8.9541321 227.7506561,25.085535 236.023819,25.0421257 
	236.0470886,29.1612396 223.3073273,29.2263756 "/>
<polygon class="st0" points="239.1422119,9.0014229 252.9095917,8.929327 252.9313202,13.048439 243.628952,13.0980968 
	243.6498871,16.8720684 252.4365082,16.8278542 252.4589844,20.9446945 243.669281,20.9912281 243.6917877,25.1103401 
	253.5106659,25.06073 253.5316162,29.1775227 239.2484589,29.2511806 "/>
<path class="st0" d="M256.6267395,8.9956951l6.697937-0.0348873c1.6209717-0.009326,3.1651917,0.1644039,4.6263733,0.5173092
	c1.4604492,0.3544188,2.7393799,0.9369125,3.8306274,1.7403793c1.0920105,0.8050766,1.9606628,1.8513403,2.6082764,3.146554
	c0.6452942,1.2952614,0.9741516,2.8650351,0.9819031,4.7148142c0.0085144,1.6403542-0.2931824,3.0875702-0.9074402,4.3378143
	c-0.6127319,1.2525616-1.4425659,2.3065891-2.4865112,3.1581993c-1.0462646,0.855444-2.2538757,1.5046368-3.6251221,1.9498024
	c-1.3735352,0.4475327-2.8130188,0.6739979-4.3192139,0.6809559l-7.2990112,0.0388184L256.6267395,8.9956951z
	 M261.177887,25.1045666l2.3189697-0.0131607c1.0292053-0.0054436,1.9893799-0.1147938,2.8735352-0.3280525
	c0.8872986-0.217186,1.6535645-0.56777,2.2988586-1.0579071c0.6460571-0.4878654,1.1540527-1.1300526,1.5216675-1.924242
	c0.3676453-0.7918682,0.5491333-1.7605934,0.5437012-2.9053192c-0.0054321-0.991209-0.196991-1.8536606-0.5731506-2.5865936
	c-0.3746033-0.732933-0.8795166-1.3340311-1.5116272-1.8086882c-0.6313171-0.4738531-1.375885-0.8275156-2.2228088-1.0594244
	c-0.8500366-0.2357903-1.7442932-0.3490219-2.679657-0.3451405l-2.6330872,0.0147219L261.177887,25.1045666z"/>
<path class="st0" d="M297.9493103,27.7526474c-1.3130798,0.6941624-2.6850586,1.1983128-4.1137085,1.5100803
	c-1.4301758,0.3141346-2.8882751,0.4730949-4.3766174,0.4808578c-1.5845337,0.0070076-3.0464783-0.2319069-4.3843689-0.7197247
	c-1.3378906-0.4901848-2.4950867-1.1928692-3.4730835-2.1134987c-0.9803467-0.9190655-1.7442932-2.0351067-2.2957458-3.3474083
	c-0.5506592-1.3153801-0.8291016-2.7812481-0.8384094-4.402998c-0.0093079-1.6209469,0.2559509-3.0891342,0.7918701-4.4084435
	c0.539032-1.3169413,1.2897949-2.4415026,2.2600708-3.3730183c0.9671631-0.9299068,2.1173401-1.645752,3.4536743-2.1467772
	c1.3293457-0.5049067,2.7882385-0.7608624,4.3727417-0.767869c1.6217651-0.0092783,3.1170959,0.1776123,4.4828796,0.5615234
	c1.3650513,0.3847151,2.5679626,1.0501451,3.6026001,1.998703l-3.1294556,3.4490442
	c-0.6142883-0.626708-1.3045654-1.1005602-2.0692749-1.4208965c-0.7639771-0.3195314-1.7194824-0.4769773-2.8642578-0.4700184
	c-0.953949,0.0038815-1.8164062,0.1714106-2.5881042,0.4995098c-0.7709351,0.3303719-1.4309692,0.783349-1.9839478,1.3673573
	c-0.5491333,0.5863276-0.9687195,1.2804918-1.2619019,2.0840063c-0.2908325,0.8011475-0.4343262,1.6697998-0.4288635,2.6028309
	c0.0061951,0.9555168,0.1566467,1.8257294,0.4567871,2.6145229c0.3009338,0.7903061,0.7275085,1.4751453,1.2835999,2.0521946
	c0.5568848,0.5801258,1.223877,1.0291748,1.9971313,1.3502674c0.7740479,0.3195782,1.6403809,0.475462,2.5935669,0.4715805
	c0.9741516-0.0054436,1.8125305-0.1186752,2.5183411-0.341259c0.7026367-0.2225838,1.2649536-0.4490471,1.6837769-0.6809559
	l-0.0178528-3.2900352l-3.6351624,0.0186024l-0.0201416-4.119112l7.928009-0.0426979L297.9493103,27.7526474z"/>
<polygon class="st0" points="301.0444336,8.535615 314.8118286,8.4635191 314.8320007,12.5803127 305.530426,12.6307268 
	305.5498047,16.4047451 314.3387451,16.3597279 314.3604431,20.4773254 305.5715027,20.523859 305.5940247,24.6445332 
	315.4105835,24.592556 315.433075,28.7093964 301.1506958,28.7853737 "/>
<path class="st0" d="M318.5281982,8.5206041l7.8427124-0.0410891c1.0292053-0.0054436,2.0072327,0.0868654,2.9348145,0.2854004
	c0.9260254,0.1947012,1.7380676,0.5250731,2.438446,0.9873276c0.699585,0.4622555,1.2541199,1.0889149,1.6698303,1.8792696
	c0.4133911,0.7887449,0.6235657,1.7760735,0.6305542,2.9557352c0.0069885,1.4309311-0.3598938,2.6478481-1.0966797,3.6553421
	c-0.7383423,1.0036125-1.8234253,1.6419182-3.254364,1.9179916l5.1972046,8.5244789l-5.3530884,0.0279293l-4.2789001-8.0715485
	l-2.2042236,0.0116444l0.0426636,8.0947914l-4.463501,0.0217285L318.5281982,8.5206041z M323.0366821,16.876749l2.6338806-0.0147228
	c0.3994141,0,0.8244324-0.0186043,1.2734985-0.0480957c0.4467468-0.0317631,0.851593-0.1171131,1.2138062-0.265234
	c0.3606567-0.142725,0.6600037-0.3691883,0.8973389-0.6755133c0.2373352-0.3063707,0.3544312-0.7344961,0.3529053-1.2874975
	c-0.0038757-0.5157471-0.1116943-0.9260254-0.321106-1.2285147c-0.211731-0.3040524-0.4801025-0.5359135-0.807373-0.6972408
	c-0.3242188-0.1621323-0.699585-0.2691641-1.1168518-0.3234129c-0.4211426-0.0574207-0.8291016-0.0814686-1.2323914-0.0799065
	l-2.9177551,0.0170412L323.0366821,16.876749z"/>
<g>
	<path class="st1" d="M126.8347473,43.9415588h26.6376953v5.3876953h-20.8911133v13.2885742h19.4545898v5.3876953h-19.4545898
		v18.3168945h-5.746582V43.9415588z"/>
	<path class="st1" d="M158.7991028,43.9415588h5.746582v42.3808594h-5.746582V43.9415588z"/>
	<path class="st1" d="M173.0456848,43.9415588h14.9052734c2.7128906,0,4.9472656,0.3696289,6.7041016,1.1074219
		c1.7558594,0.7387695,3.1425781,1.6762695,4.1601562,2.8134766s1.7255859,2.4150391,2.125,3.8310547
		c0.3984375,1.4169922,0.5986328,2.7836914,0.5986328,4.1005859c0,1.3569336-0.2392578,2.6635742-0.7177734,3.9204102
		c-0.4794922,1.2573242-1.1679688,2.3945312-2.0654297,3.4121094c-0.8984375,1.0175781-1.9960938,1.8764648-3.2919922,2.5742188
		c-1.2978516,0.6987305-2.7451172,1.1279297-4.3398438,1.2866211l12.03125,19.3349609h-7.1826172L185.197052,67.6461487h-6.4052734
		v18.6762695h-5.7460938V43.9415588z M178.7917786,62.6178284h7.5429688c1.1162109,0,2.2236328-0.0898438,3.3222656-0.269043
		c1.0966797-0.1796875,2.0742188-0.5092773,2.9326172-0.987793c0.8583984-0.4790039,1.5458984-1.1674805,2.0654297-2.0654297
		c0.5185547-0.8979492,0.7783203-2.0649414,0.7783203-3.5014648c0-1.4370117-0.2597656-2.6040039-0.7783203-3.5019531
		c-0.5195312-0.8979492-1.2070312-1.5864258-2.0654297-2.0654297c-0.8583984-0.4785156-1.8359375-0.8081055-2.9326172-0.9873047
		c-1.0986328-0.1796875-2.2060547-0.2695312-3.3222656-0.2695312h-7.5429688V62.6178284z"/>
	<path class="st1" d="M207.2253723,43.9415588h27.3554688v5.3876953h-21.609375v12.6303711h20.1132812v5.387207h-20.1132812
		v13.5883789h22.6875v5.387207h-28.4335938V43.9415588z"/>
	<path class="st1" d="M241.4050598,43.9415588h26.6376953v5.3876953h-20.8916016v13.2885742h19.4550781v5.3876953h-19.4550781
		v18.3168945h-5.7460938V43.9415588z"/>
	<path class="st1" d="M273.3699036,43.9415588h5.7460938v36.9936523h19.4550781v5.387207h-25.2011719V43.9415588z"/>
	<path class="st1" d="M305.3943176,68.2447815l-16.0419922-24.3032227h7.3632812l11.5527344,18.6166992l11.9121094-18.6166992
		h7.0029297l-16.0419922,24.3032227v18.0776367h-5.7470703V68.2447815z"/>
</g>
<g id="Group-2-Copy-2" transform="translate(0.000000, 0.665356)">
	<polygon id="Path-3" class="st2" points="41.3442307,61.9910088 41.3442307,71.833313 53.7470589,79.1447449 66.1200714,71.833313 
		66.1200714,48.929203 53.7470589,56.0727654 41.3442307,48.929203 	"/>
	<path id="Combined-Shape" class="st3" d="M63.9449883,46.3943977l4.2181892,1.7192154l0.0001678,22.8760796
		c0,1.4531708-0.7475739,2.7998962-1.9711685,3.5698547l-0.1379013,0.0831528l-10.2284203,5.9053802
		c-1.3050957,0.7535019-2.9130402,0.7535019-4.218132,0l0,0l-10.2284279-5.9053802
		c-1.3050919-0.7535019-2.1090622-2.146019-2.1090622-3.6530075l0,0l-0.0004311-22.8561172l4.2181931-1.5885506
		l0.0003662,24.4446678l10.2284279,5.9053802l10.2284241-5.9053802L63.9449883,46.3943977z M51.6077232,22.6382179
		c1.3050919-0.7534962,2.9130363-0.7534962,4.218132,0l0,0l10.2284203,5.9053841
		c1.3050995,0.7534962,2.1090698,2.1460152,2.1090698,3.6530075l0,0l-0.0001678,4.5297585l-4.2181892-0.0871086l0.0002251-4.4426498
		l-10.2284241-5.9053822l-10.2284279,5.9053822l-0.0003662,4.0204048l-4.2181931-0.0865021l0.0004311-3.9339027
		c0-1.4531708,0.74757-2.7999001,1.9711647-3.5698547l0.1378975-0.0831528L51.6077232,22.6382179z"/>
	<path id="Path-2" class="st3" d="M65.0655365,57.774231l2.1090698,3.6530075L54.80159,68.5708008
		c-0.6292458,0.3632889-1.3992882,0.3762741-2.0385857,0.0389252l-0.0704803-0.0389252l-12.3730164-7.1435623l2.109066-3.6530075
		l11.3183022,6.5345001L65.0655365,57.774231z"/>
	<path id="Path-2-Copy" class="st3" d="M65.0655365,46.9476929l2.1090698,3.6530075L54.80159,57.7442627
		c-0.6292458,0.3632927-1.3992882,0.3762703-2.0385857,0.0389252l-0.0704803-0.0389252l-12.3730164-7.1435623l2.109066-3.6530075
		l11.3183022,6.5345001L65.0655365,46.9476929z"/>
	<path id="Path-4" class="st3" d="M53.7167892,33.7295303H4.7864637c-2.0276482,0-2.8872004,2.5819168-1.2641599,3.7972755
		l23.658884,17.7161522c0.6173763,0.4623032,1.43787,0.5507317,2.1395721,0.2305908l25.2714405-11.5295563
		c0.7514801-0.3428497,1.233654-1.0928154,1.233654-1.9188042v-6.1865959
		C55.8258553,34.67379,54.8815918,33.7295303,53.7167892,33.7295303z M51.6077232,37.9476585v2.7212601L28.7080498,51.1163864
		l-17.586235-13.1687279H51.6077232z"/>
	<path id="Path-4-Copy" class="st3" d="M53.9939156,33.7295303h48.9303169c2.0276489,0,2.887207,2.5819168,1.2641678,3.7972755
		L80.5295105,55.2429581c-0.6173782,0.4623032-1.4378662,0.5507317-2.1395721,0.2305908L53.1184998,43.9439926
		c-0.7514763-0.3428497-1.2336502-1.0928154-1.2336502-1.9188042v-6.1865959
		C51.8848495,34.67379,52.8291054,33.7295303,53.9939156,33.7295303z M56.1029816,37.9476585v2.7212601l22.8996658,10.4474678
		l17.586235-13.1687279H56.1029816z"/>
	<path id="Line-Copy-3" class="st3" d="M46.686573,20.5316429c1.141964,0,2.071949,0.9075947,2.1079788,2.0408077
		l0.0010796,0.0682583v4.5507164c0,1.1648045-0.9442596,2.1090641-2.1090584,2.1090641
		c-1.1419716,0-2.0719566-0.9075928-2.1079865-2.0408077l-0.0010796-0.0682564v-4.5507164
		C44.577507,21.4759045,45.5217667,20.5316429,46.686573,20.5316429z"/>
	<path id="Line-Copy-4" class="st3" d="M61.1688194,20.5316429c1.1419678,0,2.0719528,0.9075947,2.1079826,2.0408077
		l0.0010834,0.0682583v4.5507164c0,1.1648045-0.9442596,2.1090641-2.109066,2.1090641
		c-1.141964,0-2.071949-0.9075928-2.1079788-2.0408077l-0.0010872-0.0682564v-4.5507164
		C59.0597534,21.4759045,60.0040169,20.5316429,61.1688194,20.5316429z"/>
</g>
</svg>
