<?xml version="1.0" encoding="UTF-8"?>
<svg width="530px" height="101px" viewBox="0 0 530 101" version="1.1" xmlns="http://www.w3.org/2000/svg" xmlns:xlink="http://www.w3.org/1999/xlink">
    <!-- Generator: Sketch 63.1 (92452) - https://sketch.com -->
    <title>Group 2</title>
    <desc>Created with Sketch.</desc>
    <g id="Logos" stroke="none" stroke-width="1" fill="none" fill-rule="evenodd">
        <g id="Hyperledger-Firefly-Guide-Copy" transform="translate(-89.000000, -432.000000)">
            <g id="Group-2" transform="translate(89.000000, 431.000000)">
                <g id="Group-2-Copy-2" transform="translate(0.000000, 0.665356)">
                    <polygon id="Path-3" fill="#FFEA00" points="64.1517118 68.8954517 64.1517118 85.1655502 84.6545453 97.2519091 105.108099 85.1655502 105.108099 47.3032717 84.6545453 59.1121367 64.1517118 47.3032717"></polygon>
                    <path d="M101.512519,43.1130359 L108.485519,45.9550359 L108.485794,83.7709703 C108.485794,86.1731767 107.250002,88.399424 105.227304,89.6722197 L104.999344,89.8096783 L88.090962,99.5717374 C85.9335394,100.817326 83.2754852,100.817326 81.1180626,99.5717374 L81.1180626,99.5717374 L64.2096803,89.8096783 C62.0522577,88.5640898 60.7232306,86.2621473 60.7232306,83.7709703 L60.7232306,83.7709703 L60.7225192,45.9880359 L67.6955192,43.3620359 L67.69613,83.7709703 L84.6045123,93.5330294 L101.512895,83.7709703 L101.512519,43.1130359 Z M81.1180626,3.84222729 C83.2754852,2.59663878 85.9335394,2.59663878 88.090962,3.84222729 L88.090962,3.84222729 L104.999344,13.6042864 C107.156767,14.8498749 108.485794,17.1518174 108.485794,19.6429944 L108.485794,19.6429944 L108.485519,27.1310359 L101.512519,26.9870359 L101.512895,19.6429944 L84.6045123,9.88093528 L67.69613,19.6429944 L67.6955192,26.2890359 L60.7225192,26.1460359 L60.7232306,19.6429944 C60.7232306,17.240788 61.9590224,15.0145407 63.9817205,13.741745 L64.2096803,13.6042864 Z" id="Combined-Shape" fill="#462DE0" fill-rule="nonzero"></path>
                    <path d="M103.364875,61.924788 L106.851324,67.963496 L86.3977701,79.772361 C85.3575842,80.3729126 84.0846429,80.3943609 83.0278317,79.8367058 L82.9113204,79.772361 L62.4577663,67.963496 L65.944216,61.924788 L84.6542523,72.7268275 L103.364875,61.924788 Z" id="Path-2" fill="#462DE0" fill-rule="nonzero"></path>
                    <path d="M103.364875,44.0276797 L106.851324,50.0663877 L86.3977701,61.8752526 C85.3575842,62.4758042 84.0846429,62.4972525 83.0278317,61.9395974 L82.9113204,61.8752526 L62.4577663,50.0663877 L65.944216,44.0276797 L84.6542523,54.8297191 L103.364875,44.0276797 Z" id="Path-2-Copy" fill="#462DE0" fill-rule="nonzero"></path>
                    <path d="M84.6045123,22.1770259 L3.71887966,22.1770259 C0.367019652,22.1770259 -1.0538869,26.4451381 1.62912509,28.4542205 L40.7391008,57.7403979 C41.7596726,58.5046184 43.1160107,58.6507978 44.2759823,58.1215853 L86.0516393,39.0623271 C87.2938904,38.4955763 88.090962,37.2558229 88.090962,35.8903947 L88.090962,25.6634756 C88.090962,23.7379626 86.5300253,22.1770259 84.6045123,22.1770259 Z M81.1180626,29.1499253 L81.1180626,33.6483751 L43.2631217,50.9188523 L14.1917097,29.1499253 L81.1180626,29.1499253 Z" id="Path-4" fill="#462DE0" fill-rule="nonzero"></path>
                    <path d="M165.955005,22.1770259 L85.0693723,22.1770259 C81.7175123,22.1770259 80.2966057,26.4451381 82.9796177,28.4542205 L122.089593,57.7403979 C123.110165,58.5046184 124.466503,58.6507978 125.626475,58.1215853 L167.402132,39.0623271 C168.644383,38.4955763 169.441455,37.2558229 169.441455,35.8903947 L169.441455,25.6634756 C169.441455,23.7379626 167.880518,22.1770259 165.955005,22.1770259 Z M162.468555,29.1499253 L162.468555,33.6483751 L124.613614,50.9188523 L95.5422023,29.1499253 L162.468555,29.1499253 Z" id="Path-4-Copy" fill="#462DE0" fill-rule="nonzero" transform="translate(125.508810, 40.306576) scale(-1, 1) translate(-125.508810, -40.306576) "></path>
                    <path d="M72.9830134,0.359896552 C74.8707712,0.359896552 76.4081097,1.86022017 76.4676717,3.73351029 L76.4694631,3.84634624 L76.4694631,11.3690319 C76.4694631,13.2945449 74.9085264,14.8554816 72.9830134,14.8554816 C71.0952555,14.8554816 69.5579171,13.355158 69.4983551,11.4818678 L69.4965637,11.3690319 L69.4965637,3.84634624 C69.4965637,1.92083324 71.0575004,0.359896552 72.9830134,0.359896552 Z" id="Line-Copy-3" fill="#462DE0" fill-rule="nonzero"></path>
                    <path d="M96.9233012,0.359896552 C98.811059,0.359896552 100.348398,1.86022017 100.40796,3.73351029 L100.409751,3.84634624 L100.409751,11.3690319 C100.409751,13.2945449 98.8488142,14.8554816 96.9233012,14.8554816 C95.0355434,14.8554816 93.4982049,13.355158 93.4386429,11.4818678 L93.4368515,11.3690319 L93.4368515,3.84634624 C93.4368515,1.92083324 94.9977882,0.359896552 96.9233012,0.359896552 Z" id="Line-Copy-4" fill="#462DE0" fill-rule="nonzero"></path>
                </g>
                <g id="hl_equalheight_besu-copy" transform="translate(185.237500, 13.687500)" fill="#462DE0" fill-rule="nonzero">
                    <path d="M9.38167558,67.3544227 L9.38167558,38.3382203 L40.1995376,38.3382203 L40.1995376,29.8040431 L9.38167558,29.8040431 L9.38167558,8.75307271 L42.4753182,8.75307271 L42.4753182,0.218895537 L0.278553255,0.218895537 L0.278553255,67.3544227 L9.38167558,67.3544227 Z M64.5029085,67.3544227 L64.5029085,0.218895537 L55.3997862,0.218895537 L55.3997862,67.3544227 L64.5029085,67.3544227 Z M91.5561809,67.3544227 L91.5561809,37.7692751 L101.702369,37.7692751 L118.770724,67.3544227 L130.149627,67.3544227 L111.089964,36.726209 C113.618609,36.4733445 115.910194,35.7937711 117.964718,34.6874889 C120.019242,33.5812067 121.757686,32.22206 123.180049,30.6100487 C124.602411,28.9980375 125.69289,27.1963778 126.451483,25.2050698 C127.210077,23.2137618 127.589373,21.1434337 127.589373,18.9940853 C127.589373,16.9079531 127.273293,14.7428008 126.641132,12.4986283 C126.00897,10.2544557 124.886884,8.23153966 123.274873,6.42988004 C121.662862,4.62822041 119.466101,3.14264142 116.684592,1.97314307 C113.903082,0.803644714 110.362979,0.218895537 106.064282,0.218895537 L106.064282,0.218895537 L82.4530586,0.218895537 L82.4530586,67.3544227 L91.5561809,67.3544227 Z M103.504029,29.8040431 L91.5561809,29.8040431 L91.5561809,8.18412757 L103.504029,8.18412757 C105.274081,8.18412757 107.028328,8.32636386 108.766772,8.61083643 C110.505215,8.895309 112.05401,9.41684205 113.413157,10.1754356 C114.772304,10.9340291 115.862782,12.0245073 116.684592,13.4468702 C117.506401,14.869233 117.917306,16.7183047 117.917306,18.9940853 C117.917306,21.2698659 117.506401,23.1189376 116.684592,24.5413005 C115.862782,25.9636634 114.772304,27.0541415 113.413157,27.8127351 C112.05401,28.5713286 110.505215,29.0928617 108.766772,29.3773342 C107.028328,29.6618068 105.274081,29.8040431 103.504029,29.8040431 L103.504029,29.8040431 Z M186.124277,67.3544227 L186.124277,58.8202455 L150.185909,58.8202455 L150.185909,37.2951542 L182.046837,37.2951542 L182.046837,28.760977 L150.185909,28.760977 L150.185909,8.75307271 L184.417442,8.75307271 L184.417442,0.218895537 L141.082787,0.218895537 L141.082787,67.3544227 L186.124277,67.3544227 Z M208.815637,67.3544227 L208.815637,38.3382203 L239.633499,38.3382203 L239.633499,29.8040431 L208.815637,29.8040431 L208.815637,8.75307271 L241.90928,8.75307271 L241.90928,0.218895537 L199.712515,0.218895537 L199.712515,67.3544227 L208.815637,67.3544227 Z M294.754732,67.3544227 L294.754732,58.8202455 L263.93687,58.8202455 L263.93687,0.218895537 L254.833748,0.218895537 L254.833748,67.3544227 L294.754732,67.3544227 Z M319.152927,67.3544227 L319.152927,38.717517 L344.56581,0.218895537 L333.47138,0.218895537 L314.601366,29.7092189 L296.300297,0.218895537 L284.636922,0.218895537 L310.049805,38.717517 L310.049805,67.3544227 L319.152927,67.3544227 Z" id="FIREFLY"></path>
                </g>
            </g>
        </g>
    </g>
</svg>